<svg version="1.1" id="Layer_1" xmlns="http://www.w3.org/2000/svg" xmlns:xlink="http://www.w3.org/1999/xlink" x="0px" y="0px" width="527px" height="486px" viewBox="0 0 527 486" enable-background="new 0 0 527 486" xml:space="preserve">
<path fill="#D1B890" d="M141,87.848c0-10.579,0-20.855,0-31.324c39.151,7.069,69.317,25.426,81.855,65.025
	c8.504,26.857,4.658,52.638-10.758,76.47c-10.482,16.206-22.36,31.7-31.135,48.785c-28.233,54.975,5.724,120.438,66.49,131.424
	c48.843,8.831,99.292-23.661,107.867-76.503c1.325-8.165,1.375-16.596,1.391-24.905c0.112-57.658,0.061-115.317,0.047-172.975
	c0-1.426-0.19-2.852-0.333-4.869c-14.165,9.48-22.865,21.838-25.55,38.138c-0.673,4.084-0.893,8.283-0.898,12.43
	c-0.061,45.496,0.024,90.992-0.059,136.488c-0.063,34.561-22.466,61.287-56.466,66.299c-26.261,3.871-48.257-4.85-63.747-26.634
	c-15.242-21.435-17.424-44.747-5.021-68.304c5.559-10.558,12.849-20.205,19.389-30.241c0.31-0.475,0.97-0.722,2.205-1.598
	c0.199,2.578,0.465,4.479,0.474,6.38c0.086,18.497,0.009,36.995,0.217,55.49c0.224,19.857,14.797,35.169,33.709,35.731
	c22.463,0.667,37.708-12.274,39.212-33.611c0.503-7.132,0.355-14.315,0.36-21.476c0.029-39.83,0.463-79.666-0.1-119.488
	c-0.702-49.715,38.943-85.197,82.013-90.527c1.129-0.14,2.29-0.018,4.604-0.018c0,6.015,0.004,11.914-0.001,17.814
	c-0.054,67.988-0.062,135.976-0.193,203.964c-0.039,20.298-2.31,40.315-11.091,58.917c-17.907,37.932-48.782,60.066-88.999,67.993
	c-77.229,15.223-147.001-44.202-145.661-122.974c0.351-20.608,6.611-39.708,17.264-57.194c8.049-13.212,16.926-25.922,25.528-38.793
	c6.056-9.061,11.358-18.466,13.138-29.38c5.089-31.213-14.337-60.236-45.631-68.302C147.776,89.22,144.372,88.587,141,87.848z" data-index="0" style="opacity: 1;"></path>
</svg>